<?xml version="1.0" encoding="UTF-8"?>
<svg id="Livello_2" data-name="Livello 2" xmlns="http://www.w3.org/2000/svg" viewBox="0 0 232.2011 65.09302">
  <defs>
    <style>
      .cls-1 {
        fill: #009f56;
      }

      .cls-2 {
        fill: #24322e;
      }
    </style>
  </defs>
  <g id="Livello_1-2" data-name="Livello 1">
    <g>
      <g>
        <g>
          <path class="cls-2" d="m65.77728,22.81641c-.47998-.61133-1.35254-2.26953-1.35254-4.36328,0-4.1875,2.92285-7.37109,7.63428-7.37109h7.15479c.34863,0,.56689.26172.56689.56641v.48047c0,.2168-.13086.47852-.39258.52344l-3.14111.2168c.8291.4375,2.70508,1.96289,2.70508,5.58398,0,3.88281-2.79199,7.24219-7.24219,7.24219-2.61719,0-4.18799-.95898-4.75488-1.57031-.34912.13086-2.2251,1.08984-2.2251,3.14062s1.74512,2.53125,3.44678,2.53125h6.3252c3.75195,0,6.45654,1.70117,6.45654,5.58398,0,3.70703-3.57715,7.10938-8.89941,7.10938-5.93311,0-8.50684-3.48828-8.50684-6.45508,0-2.57422,1.83252-4.01367,2.74854-4.58203-.87256-.17383-3.40283-1.35156-3.40283-3.96875,0-2.92383,2.39941-4.40625,2.87939-4.66797Zm6.23828,17.88672c3.92627,0,6.93652-2.3125,6.93652-5.2793,0-2.00586-1.22168-3.83984-4.4502-3.83984h-5.49658c-.43604.04492-3.53369,1.26562-3.53369,4.23242,0,2.39844,2.3125,4.88672,6.54395,4.88672Zm5.104-22.29297c0-3.66406-2.48682-5.58398-5.36572-5.58398-3.35938,0-5.54053,2.44336-5.54053,5.58398,0,3.05273,1.87598,5.58398,5.54053,5.58398,3.27197,0,5.36572-2.48633,5.36572-5.58398Z"/>
          <path class="cls-2" d="m83.82659,12.08398c0-.30469.26172-.56641.56738-.56641h.52344c.26172,0,.47998.17383.52344.48047l.17432,1.78711c.43652-.60938,2.18115-2.70312,5.45312-2.70312,1.396,0,2.35596.39258,2.70508.52344.39258.13086.61035.43555.47949.78516l-.34863.87109c-.13086.30664-.39307.34961-.69824.21875-.21826-.08789-1.09082-.52344-2.26855-.52344-3.40283,0-5.06055,2.74805-5.19141,3.00977v12.43359c0,.34961-.17432.56641-.56689.56641h-.87256c-.30566,0-.47998-.26172-.47998-.56641V12.08398Z"/>
          <path class="cls-2" d="m104.41448,11.08203c4.58057,0,7.896,3.35742,7.896,7.98242,0,.69727,0,1.70117-.6543,1.70117h-13.9165c.1748,3.75195,2.87939,6.89258,6.80566,6.89258,2.31201,0,4.10059-.91602,5.14746-1.61328.39307-.26172.56738-.30664.78564,0l.43604.60938c.13086.17578.0874.4375-.17432.69922-.87256.87305-3.62109,2.05078-6.32568,2.05078-5.32227,0-8.59424-4.10156-8.59424-9.20508,0-4.97461,3.27197-9.11719,8.59424-9.11719Zm5.97656,8.11328c0-3.40234-2.05029-6.36914-5.97656-6.36914-3.83887,0-6.41309,2.79102-6.63086,6.36914h12.60742Z"/>
          <path class="cls-2" d="m124.41448,11.08203c4.58057,0,7.896,3.35742,7.896,7.98242,0,.69727,0,1.70117-.6543,1.70117h-13.9165c.1748,3.75195,2.87939,6.89258,6.80566,6.89258,2.31201,0,4.10059-.91602,5.14746-1.61328.39307-.26172.56738-.30664.78564,0l.43604.60938c.13086.17578.0874.4375-.17432.69922-.87256.87305-3.62109,2.05078-6.32568,2.05078-5.32227,0-8.59424-4.10156-8.59424-9.20508,0-4.97461,3.27197-9.11719,8.59424-9.11719Zm5.97656,8.11328c0-3.40234-2.05029-6.36914-5.97656-6.36914-3.83887,0-6.41309,2.79102-6.63086,6.36914h12.60742Z"/>
          <path class="cls-2" d="m136.84563,12.08398c0-.30469.26172-.56641.61084-.56641h.43604c.30566,0,.47998.17383.52344.43555l.1748,1.87695c.56689-.61133,2.96631-2.74805,6.45654-2.74805,4.88574,0,7.02344,3.0957,7.02344,7.98242v9.33594c0,.30469-.26172.56641-.56689.56641h-.78564c-.30518,0-.56689-.26172-.56689-.56641v-9.33594c0-4.01367-1.87598-6.10742-5.19141-6.10742-3.57715,0-6.06396,2.79102-6.23828,3.00977v12.43359c0,.34961-.17432.56641-.56738.56641h-.82861c-.30518,0-.47998-.26172-.47998-.56641V12.08398Z"/>
          <path class="cls-2" d="m157.7138,12.08398c0-.30469.26172-.56641.56738-.56641h.52344c.26172,0,.43604.17383.47949.43555l.21826,1.87695c.47998-.6543,2.48682-2.74805,6.02051-2.74805,2.66113,0,4.62402,1.13281,5.71484,3.18359.52344-.69727,2.96631-3.18359,6.54346-3.18359,4.75537,0,6.80566,3.0957,6.80566,7.98242v9.33594c0,.30469-.26172.56641-.56738.56641h-.87207c-.26221,0-.47998-.2168-.47998-.56641v-9.33594c0-4.01367-1.74512-6.10742-5.01709-6.10742s-5.19141,2.26758-5.7583,2.9668c.26172.91602.39258,1.96289.39258,3.14062v9.33594c0,.30469-.26172.56641-.56738.56641h-.82861c-.30518,0-.52344-.2168-.52344-.56641v-9.33594c0-4.01367-1.78857-6.10742-5.06055-6.10742-3.53369,0-5.45312,2.66016-5.67139,3.00977v12.43359c0,.34961-.17432.56641-.56689.56641h-.87256c-.30518,0-.47998-.26172-.47998-.56641V12.08398Z"/>
          <path class="cls-2" d="m189.69866,1.52734c0-.82812.6543-1.52734,1.4834-1.52734.82861,0,1.48291.69922,1.48291,1.52734,0,.78516-.6543,1.43945-1.48291,1.43945-.8291,0-1.4834-.6543-1.4834-1.43945Zm.52344,10.55664c0-.30469.26172-.56641.56738-.56641h.78516c.30518,0,.56689.26172.56689.56641v16.31641c0,.34961-.17432.56641-.56689.56641h-.87256c-.30566,0-.47998-.26172-.47998-.56641V12.08398Z"/>
          <path class="cls-2" d="m205.79729,11.08203c3.40283,0,5.67139,1.74414,6.45654,2.74805.21826.26172.17432.56641-.0874.78516l-.43604.43555c-.30566.30469-.6543.17383-.91602-.08789-.43652-.47852-2.26855-2.00586-5.01709-2.00586-3.96973,0-7.19824,3.09766-7.19824,7.24219,0,4.23047,3.27197,7.37109,7.15479,7.37109,3.27148,0,4.97314-2.04883,5.45312-2.57227.30518-.34961.56689-.34961.82861-.08789l.47998.43555c.21826.21875.30518.4375.13086.69922-.6543,1.04688-3.22803,3.35938-6.84912,3.35938-4.92969,0-9.16113-3.88281-9.16113-9.16211,0-5.23438,4.23145-9.16016,9.16113-9.16016Z"/>
          <path class="cls-2" d="m224.30511,11.08203c4.58057,0,7.896,3.35742,7.896,7.98242,0,.69727,0,1.70117-.6543,1.70117h-13.9165c.1748,3.75195,2.87939,6.89258,6.80566,6.89258,2.31201,0,4.10059-.91602,5.14746-1.61328.39307-.26172.56738-.30664.78564,0l.43604.60938c.13086.17578.0874.4375-.17432.69922-.87256.87305-3.62109,2.05078-6.32568,2.05078-5.32227,0-8.59424-4.10156-8.59424-9.20508,0-4.97461,3.27197-9.11719,8.59424-9.11719Zm5.97656,8.11328c0-3.40234-2.05029-6.36914-5.97656-6.36914-3.83887,0-6.41309,2.79102-6.63086,6.36914h12.60742Z"/>
        </g>
        <g>
          <path class="cls-1" d="m87.32806,40.71289h-3.06055c-.21973,0-.37988-.17969-.37988-.37988v-1.64062c0-.2002.16016-.37988.37988-.37988h8.74219c.21973,0,.37988.17969.37988.37988v1.64062c0,.2002-.16016.37988-.37988.37988h-3.06055v11.22266c0,.2002-.18018.37988-.38037.37988h-1.86035c-.19971,0-.38037-.17969-.38037-.37988v-11.22266Z"/>
          <path class="cls-1" d="m95.16595,38.69238c0-.2002.16016-.37988.37988-.37988h8.1416c.22021,0,.37988.17969.37988.37988v1.64062c0,.2002-.15967.37988-.37988.37988h-5.9209v3.28027h4.94092c.19971,0,.38037.18066.38037.38086v1.66016c0,.21973-.18066.37988-.38037.37988h-4.94092v3.50098h5.9209c.22021,0,.37988.17969.37988.37988v1.64062c0,.2002-.15967.37988-.37988.37988h-8.1416c-.21973,0-.37988-.17969-.37988-.37988v-13.24316Z"/>
          <path class="cls-1" d="m112.76116,38.1123c2.02051,0,3.48096.64062,4.84131,1.86035.17969.16016.17969.40039.01953.56055l-1.21973,1.25977c-.14062.16016-.34033.16016-.50049,0-.84033-.74023-1.96045-1.17969-3.08057-1.17969-2.56055,0-4.46094,2.13965-4.46094,4.66113,0,2.5,1.92041,4.62012,4.48096,4.62012,1.2002,0,2.22021-.45996,3.06055-1.13965.16016-.14062.38037-.12012.50049,0l1.24023,1.28027c.15967.13965.11963.39941-.02051.54004-1.36035,1.32031-3.08057,1.94043-4.86084,1.94043-4.00098,0-7.22119-3.18066-7.22119-7.18164s3.22021-7.22168,7.22119-7.22168Z"/>
          <path class="cls-1" d="m119.93353,38.69238c0-.2002.18018-.37988.37988-.37988h1.86035c.2207,0,.38037.17969.38037.37988v5.30078h6.52148v-5.30078c0-.2002.15967-.37988.38037-.37988h1.83984c.2002,0,.38037.17969.38037.37988v13.24316c0,.2002-.18018.37988-.38037.37988h-1.83984c-.2207,0-.38037-.17969-.38037-.37988v-5.52148h-6.52148v5.52148c0,.2002-.15967.37988-.38037.37988h-1.86035c-.19971,0-.37988-.17969-.37988-.37988v-13.24316Z"/>
          <path class="cls-1" d="m135.08343,38.47266c0-.2002.18018-.36035.38037-.36035h.5l8.32178,8.8418h.02002v-8.26172c0-.2002.16016-.37988.37988-.37988h1.84082c.19971,0,.37988.17969.37988.37988v13.46289c0,.2002-.18018.36035-.37988.36035h-.48047l-8.36182-9.18164h-.02002v8.60156c0,.2002-.16016.37988-.37988.37988h-1.82031c-.2002,0-.38037-.17969-.38037-.37988v-13.46289Z"/>
          <path class="cls-1" d="m156.55462,38.1123c4.00098,0,7.20215,3.2207,7.20215,7.22168s-3.20117,7.18164-7.20215,7.18164-7.18164-3.18066-7.18164-7.18164,3.18066-7.22168,7.18164-7.22168Zm0,11.80273c2.52051,0,4.60156-2.06055,4.60156-4.58105s-2.08105-4.62109-4.60156-4.62109-4.58105,2.10059-4.58105,4.62109,2.06055,4.58105,4.58105,4.58105Z"/>
          <path class="cls-1" d="m166.22308,38.69238c0-.2002.16016-.37988.38037-.37988h1.83984c.2002,0,.38037.17969.38037.37988v11.22266h5.10107c.22021,0,.37988.17969.37988.37988v1.64062c0,.2002-.15967.37988-.37988.37988h-7.32129c-.22021,0-.38037-.17969-.38037-.37988v-13.24316Z"/>
          <path class="cls-1" d="m181.96819,38.1123c4.00049,0,7.20166,3.2207,7.20166,7.22168s-3.20117,7.18164-7.20166,7.18164-7.18164-3.18066-7.18164-7.18164,3.18115-7.22168,7.18164-7.22168Zm0,11.80273c2.52051,0,4.60107-2.06055,4.60107-4.58105s-2.08057-4.62109-4.60107-4.62109-4.58105,2.10059-4.58105,4.62109,2.06055,4.58105,4.58105,4.58105Z"/>
          <path class="cls-1" d="m197.91985,38.1123c1.80078,0,3.521.7002,4.88135,1.86035.15967.16016.18018.40039.02002.56055l-1.24023,1.2998c-.16016.16016-.33984.16016-.52051,0-.85986-.75977-1.91992-1.16016-3.02051-1.16016-2.50049,0-4.48047,2.14062-4.48047,4.64062,0,2.48145,1.97998,4.58105,4.50098,4.58105,1.12012,0,1.97998-.33984,2.37988-.5v-1.7002h-1.6001c-.22021,0-.38037-.16016-.38037-.36035v-1.58008c0-.21973.16016-.37988.38037-.37988h3.84082c.19971,0,.35986.17969.35986.37988v5.12109c0,.16016-.08008.25977-.16016.32031,0,0-2.06006,1.2998-4.96094,1.2998-3.98047,0-7.18164-3.16016-7.18164-7.16113s3.20117-7.22168,7.18164-7.22168Z"/>
          <path class="cls-1" d="m205.95647,38.69238c0-.2002.18018-.37988.38037-.37988h1.86035c.2002,0,.37988.17969.37988.37988v13.24316c0,.2002-.17969.37988-.37988.37988h-1.86035c-.2002,0-.38037-.17969-.38037-.37988v-13.24316Z"/>
          <path class="cls-1" d="m211.95599,38.69238c0-.2002.16016-.37988.38037-.37988h8.14209c.21973,0,.37988.17969.37988.37988v1.64062c0,.2002-.16016.37988-.37988.37988h-5.92188v3.28027h4.94141c.2002,0,.37988.18066.37988.38086v1.66016c0,.21973-.17969.37988-.37988.37988h-4.94141v3.50098h5.92188c.21973,0,.37988.17969.37988.37988v1.64062c0,.2002-.16016.37988-.37988.37988h-8.14209c-.22021,0-.38037-.17969-.38037-.37988v-13.24316Z"/>
          <path class="cls-1" d="m222.70599,50.35547l.7207-1.24121c.15967-.2793.5-.2793.67969-.13965.1001.06055,1.7207,1.24023,3.02051,1.24023,1.04053,0,1.82031-.67969,1.82031-1.54004,0-1.02051-.85986-1.7207-2.54004-2.40039-1.88086-.76074-3.76074-1.96094-3.76074-4.32129,0-1.78027,1.32031-3.84082,4.50098-3.84082,2.04004,0,3.60059,1.04004,4.00098,1.34082.19971.11914.25977.45996.11963.66016l-.76025,1.13965c-.16016.24023-.45996.40039-.7002.24023-.16016-.09961-1.68018-1.10059-2.78027-1.10059-1.14062,0-1.76074.76074-1.76074,1.40039,0,.94043.74023,1.58008,2.36035,2.24023,1.94043.78027,4.18115,1.94043,4.18115,4.52148,0,2.06055-1.78027,3.96094-4.60107,3.96094-2.52051,0-4.00098-1.18066-4.40039-1.56055-.18066-.17969-.28027-.28027-.10059-.59961Z"/>
        </g>
      </g>
      <g>
        <path class="cls-1" d="m10.47583,21.44455l6.79513-.05825-1.13243-6.70043c-.16127-.9529.48088-1.85643,1.43381-2.01722.95932-.16014,1.85643.48088,2.01722,1.43381l1.47478,8.72451c.08529.50506-.05513,1.02277-.38392,1.41528-.31312.3741-.76694.59903-1.25116.62408-.02487.00129-.05028.00162-.07568.00196l-8.84825.0755c-.96616.00892-1.75642-.76866-1.76483-1.73436-.00797-.9667.75157-1.72767,1.73534-1.76488Z"/>
        <path class="cls-1" d="m.03336,28.65786c.70216,13.56974,12.31333,24.0384,25.88355,23.33622,1.78545-.09239,3.54554-.38686,5.25243-.8541.63343.69476,1.29045,1.35407,1.99013,1.94028,2.71698,2.2767,6.12458,3.41464,9.64574,3.23244.17262-.00893.3446-.02076.51736-.03655,3.08723-.2722,5.92341-1.54546,8.16792-3.60903.42498.36085,1.05281.95224.94902,1.45046-.11404.54568-.49372.89976-1.21169,1.52852-.92414.81153-2.19021,1.92239-2.62205,3.98946-.59193,2.83809,2.11332,4.89734,2.42421,5.12278.33687.24562.73207.35229,1.11779.33233.50957-.02637,1.0033-.27389,1.32644-.71892.56775-.78234.39477-1.87642-.38756-2.44418-.49441-.37045-1.14272-1.15441-1.05461-1.57749.18335-.87881.66661-1.33799,1.50379-2.07267.87837-.77005,1.97138-1.72918,2.32996-3.44532.50582-2.42342-1.27175-4.12045-2.10967-4.83152,1.7004-2.60062,2.48592-5.6707,2.20843-8.81291-.3266-3.70389-2.07601-7.0584-4.92589-9.44655-.60308-.50516-1.25744-.96659-1.93259-1.40934.16624-1.39375.22061-2.8091.14757-4.22078-.70221-13.57071-12.31338-24.03938-25.8836-23.3372C9.79982,3.47598-.66885,15.08715.03336,28.65786Zm35.3743,21.74014c-6.39989-5.362-9.79255-17.25726-10.95427-22.12365-.10169-.425-.03546-.61911-.01843-.63955.02024-.02452.15851-.10208.46913-.11815.08095-.00419.17385-.00411.27978.00215,4.97361.29612,17.23025,1.56288,23.60708,6.90456,2.13283,1.78768,3.4426,4.29953,3.68726,7.07184s-.60514,5.47413-2.3928,7.60744c-1.78717,2.13329-4.29855,3.44255-7.07084,3.6877-2.76532.23794-5.47416-.60563-7.60693-2.39233ZM3.52868,28.477C2.92625,16.83437,11.90828,6.87156,23.55091,6.26912s21.60498,8.38011,22.20741,20.02273c.03782.73096.03707,1.46293.00042,2.19089-6.76631-3.15016-15.22803-4.15125-20.36646-4.45791-1.53457-.09074-2.82538.39066-3.63865,1.36074-.7972.94969-1.04743,2.26516-.70415,3.70247,1.17856,4.9369,3.57792,12.92906,7.73557,19.02363-1.00207.19853-2.02012.33384-3.04901.38708-11.64263.60244-21.60492-8.37913-22.20736-20.02176Z"/>
      </g>
    </g>
  </g>
</svg>