<?xml version="1.0" encoding="UTF-8"?>
<svg id="Livello_2" data-name="Livello 2" xmlns="http://www.w3.org/2000/svg" viewBox="0 0 163.54995 45.57137">
  <defs>
    <style>
      .cls-1 {
        fill: #1d1d1b;
      }
    </style>
  </defs>
  <g id="Livello_1-2" data-name="Livello 1">
    <g>
      <g>
        <g>
          <path class="cls-1" d="m46.04506,15.97656c-.33594-.42773-.94727-1.58789-.94727-3.05469,0-2.93262,2.04688-5.16211,5.34619-5.16211h5.00977c.24463,0,.39697.18262.39697.39648v.33594c0,.15332-.09131.33691-.2749.36719l-2.19922.15234c.58008.30566,1.89404,1.375,1.89404,3.91016,0,2.71875-1.95508,5.07129-5.07129,5.07129-1.83252,0-2.93262-.67188-3.32959-1.09961-.24414.0918-1.55811.76367-1.55811,2.19922s1.22217,1.77148,2.41357,1.77148h4.4292c2.62744,0,4.52148,1.19141,4.52148,3.91016,0,2.59668-2.50537,4.97949-6.23193,4.97949-4.15479,0-5.95703-2.44336-5.95703-4.52051,0-1.80273,1.2832-2.81055,1.9248-3.20801-.61133-.12207-2.38281-.94727-2.38281-2.78027,0-2.0459,1.68018-3.08496,2.01611-3.26855Zm4.36816,12.52539c2.74951,0,4.85742-1.61914,4.85742-3.69629,0-1.40527-.85547-2.68848-3.11621-2.68848h-3.84912c-.30518.03027-2.47412.88574-2.47412,2.96289,0,1.68066,1.61914,3.42188,4.58203,3.42188Zm3.57422-15.61035c0-2.56641-1.74121-3.91016-3.75732-3.91016-2.35205,0-3.87988,1.71094-3.87988,3.91016,0,2.13867,1.31396,3.91016,3.87988,3.91016,2.29102,0,3.75732-1.74121,3.75732-3.91016Z"/>
          <path class="cls-1" d="m58.81069,8.46191c0-.21387.18311-.39648.39697-.39648h.3667c.18311,0,.33594.12207.3667.33594l.12207,1.25195c.30518-.42773,1.52734-1.89355,3.81836-1.89355.97754,0,1.64941.27441,1.89404.36621.2749.0918.42773.30566.33594.5498l-.24414.61133c-.0918.21387-.2749.24414-.48877.15234-.15283-.06055-.76367-.36621-1.58887-.36621-2.38232,0-3.54346,1.92383-3.63477,2.10742v8.70605c0,.24512-.12256.39746-.39746.39746h-.61084c-.21387,0-.33594-.18359-.33594-.39746v-11.4248Z"/>
          <path class="cls-1" d="m73.34926,7.75977c3.20752,0,5.5293,2.35156,5.5293,5.58984,0,.48926,0,1.19141-.45801,1.19141h-9.74512c.12207,2.62695,2.01611,4.82715,4.76562,4.82715,1.61914,0,2.87158-.6416,3.60449-1.13086.2749-.18359.39746-.21387.5498,0l.30566.42773c.0918.12207.06104.30566-.12207.48926-.61084.61035-2.53564,1.43555-4.42969,1.43555-3.72656,0-6.01807-2.87207-6.01807-6.44629,0-3.48242,2.2915-6.38379,6.01807-6.38379Zm4.18506,5.68164c0-2.38281-1.43555-4.45996-4.18506-4.45996-2.68799,0-4.49023,1.95508-4.64307,4.45996h8.82812Z"/>
          <path class="cls-1" d="m87.47133,7.75977c3.20752,0,5.5293,2.35156,5.5293,5.58984,0,.48926,0,1.19141-.45801,1.19141h-9.74512c.12207,2.62695,2.01611,4.82715,4.76562,4.82715,1.61914,0,2.87158-.6416,3.60449-1.13086.2749-.18359.39746-.21387.5498,0l.30566.42773c.0918.12207.06104.30566-.12207.48926-.61084.61035-2.53564,1.43555-4.42969,1.43555-3.72656,0-6.01807-2.87207-6.01807-6.44629,0-3.48242,2.2915-6.38379,6.01807-6.38379Zm4.18506,5.68164c0-2.38281-1.43555-4.45996-4.18506-4.45996-2.68799,0-4.49023,1.95508-4.64307,4.45996h8.82812Z"/>
          <path class="cls-1" d="m96.2936,8.46191c0-.21387.18311-.39648.42773-.39648h.30518c.21387,0,.33594.12207.3667.30469l.12207,1.31348c.39746-.42773,2.07715-1.92383,4.52148-1.92383,3.4209,0,4.91797,2.16895,4.91797,5.58984v6.53711c0,.21387-.18311.39746-.39697.39746h-.5498c-.21387,0-.39746-.18359-.39746-.39746v-6.53711c0-2.81055-1.31348-4.27637-3.63525-4.27637-2.50488,0-4.24609,1.95508-4.36816,2.10742v8.70605c0,.24512-.12207.39746-.39697.39746h-.58057c-.21387,0-.33594-.18359-.33594-.39746v-11.4248Z"/>
          <path class="cls-1" d="m111.02651,8.46191c0-.21387.18311-.39648.39697-.39648h.3667c.18311,0,.30518.12207.33594.30469l.15283,1.31348c.33594-.45801,1.74121-1.92383,4.21533-1.92383,1.86377,0,3.23828.79395,4.00195,2.22949.3667-.48828,2.07715-2.22949,4.58252-2.22949,3.32959,0,4.76514,2.16895,4.76514,5.58984v6.53711c0,.21387-.18311.39746-.39697.39746h-.61084c-.18359,0-.33643-.15234-.33643-.39746v-6.53711c0-2.81055-1.22168-4.27637-3.5127-4.27637s-3.63525,1.58789-4.03223,2.07715c.18311.6416.2749,1.375.2749,2.19922v6.53711c0,.21387-.18359.39746-.39746.39746h-.58008c-.21387,0-.3667-.15234-.3667-.39746v-6.53711c0-2.81055-1.25244-4.27637-3.54346-4.27637-2.47461,0-3.81885,1.86328-3.97119,2.10742v8.70605c0,.24512-.12256.39746-.39746.39746h-.61084c-.21387,0-.33594-.18359-.33594-.39746v-11.4248Z"/>
          <path class="cls-1" d="m133.54067,1.06934c0-.58008.45801-1.06934,1.03857-1.06934s1.03857.48926,1.03857,1.06934c0,.5498-.45801,1.00781-1.03857,1.00781s-1.03857-.45801-1.03857-1.00781Zm.3667,7.39258c0-.21387.18311-.39648.39697-.39648h.5498c.21387,0,.39746.18262.39746.39648v11.4248c0,.24512-.12256.39746-.39746.39746h-.61084c-.21387,0-.33594-.18359-.33594-.39746v-11.4248Z"/>
          <path class="cls-1" d="m144.93715,7.75977c2.38281,0,3.97119,1.22168,4.521,1.92383.15283.18359.12256.39746-.06104.5498l-.30566.30566c-.21338.21387-.45801.12207-.64111-.06055-.30566-.33594-1.58887-1.40527-3.51318-1.40527-2.77979,0-5.04053,2.16895-5.04053,5.07031,0,2.96387,2.29102,5.16309,5.00977,5.16309,2.2915,0,3.48291-1.43555,3.81885-1.80273.21387-.24414.39697-.24414.58008-.06055l.33643.30566c.15234.15234.21387.30469.09131.48828-.45801.7334-2.26025,2.35254-4.7959,2.35254-3.45215,0-6.41504-2.71875-6.41504-6.41504,0-3.66602,2.96289-6.41504,6.41504-6.41504Z"/>
          <path class="cls-1" d="m158.02065,7.75977c3.20752,0,5.5293,2.35156,5.5293,5.58984,0,.48926,0,1.19141-.45801,1.19141h-9.74512c.12207,2.62695,2.01611,4.82715,4.76562,4.82715,1.61914,0,2.87158-.6416,3.60449-1.13086.2749-.18359.39746-.21387.5498,0l.30566.42773c.0918.12207.06104.30566-.12207.48926-.61084.61035-2.53564,1.43555-4.42969,1.43555-3.72656,0-6.01807-2.87207-6.01807-6.44629,0-3.48242,2.2915-6.38379,6.01807-6.38379Zm4.18506,5.68164c0-2.38281-1.43555-4.45996-4.18506-4.45996-2.68799,0-4.49023,1.95508-4.64307,4.45996h8.82812Z"/>
        </g>
        <g>
          <path class="cls-1" d="m61.131,28.50391h-2.14307c-.1543,0-.26611-.12598-.26611-.2666v-1.14844c0-.14062.11182-.2666.26611-.2666h6.12109c.1543,0,.2666.12598.2666.2666v1.14844c0,.14062-.1123.2666-.2666.2666h-2.14307v7.85742c0,.14062-.12598.2666-.26611.2666h-1.30273c-.14014,0-.26611-.12598-.26611-.2666v-7.85742Z"/>
          <path class="cls-1" d="m66.6437,27.08887c0-.14062.11182-.2666.26611-.2666h5.70068c.1543,0,.26611.12598.26611.2666v1.14844c0,.14062-.11182.2666-.26611.2666h-4.146v2.29688h3.45996c.14014,0,.26611.12598.26611.2666v1.16211c0,.1543-.12598.2666-.26611.2666h-3.45996v2.45117h4.146c.1543,0,.26611.12598.26611.26562v1.14844c0,.14062-.11182.2666-.26611.2666h-5.70068c-.1543,0-.26611-.12598-.26611-.2666v-9.27246Z"/>
          <path class="cls-1" d="m78.98842,26.68262c1.41455,0,2.43701.44824,3.38965,1.30273.12598.1123.12598.28027.01416.39258l-.85449.88184c-.09814.1123-.23828.1123-.3501,0-.58838-.51855-1.37305-.82617-2.15723-.82617-1.79297,0-3.12402,1.49902-3.12402,3.26367,0,1.75098,1.34473,3.23535,3.1377,3.23535.84082,0,1.55518-.32227,2.14355-.79785.11182-.09863.26611-.08398.3501,0l.86816.89648c.1123.09766.08447.28027-.01367.37793-.95264.9248-2.15723,1.3584-3.40381,1.3584-2.80176,0-5.05713-2.22656-5.05713-5.02832s2.25537-5.05664,5.05713-5.05664Z"/>
          <path class="cls-1" d="m84.03432,27.08887c0-.14062.12598-.2666.26611-.2666h1.30273c.15381,0,.26611.12598.26611.2666v3.71191h4.56641v-3.71191c0-.14062.11182-.2666.26611-.2666h1.28857c.14014,0,.26611.12598.26611.2666v9.27246c0,.14062-.12598.2666-.26611.2666h-1.28857c-.1543,0-.26611-.12598-.26611-.2666v-3.86523h-4.56641v3.86523c0,.14062-.1123.2666-.26611.2666h-1.30273c-.14014,0-.26611-.12598-.26611-.2666v-9.27246Z"/>
          <path class="cls-1" d="m94.66567,26.93457c0-.13965.12598-.25195.26611-.25195h.3501l5.82715,6.19141h.01367v-5.78516c0-.14062.1123-.2666.2666-.2666h1.28857c.14014,0,.26611.12598.26611.2666v9.42676c0,.14062-.12598.25195-.26611.25195h-.33643l-5.85498-6.42871h-.01416v6.02246c0,.14062-.11182.2666-.26611.2666h-1.27441c-.14014,0-.26611-.12598-.26611-.2666v-9.42676Z"/>
          <path class="cls-1" d="m109.72231,26.68262c2.80176,0,5.04297,2.25488,5.04297,5.05664s-2.24121,5.02832-5.04297,5.02832-5.02881-2.22656-5.02881-5.02832,2.22705-5.05664,5.02881-5.05664Zm0,8.26465c1.76514,0,3.22168-1.44336,3.22168-3.20801s-1.45654-3.23535-3.22168-3.23535-3.20752,1.4707-3.20752,3.23535,1.44238,3.20801,3.20752,3.20801Z"/>
          <path class="cls-1" d="m116.51381,27.08887c0-.14062.11182-.2666.26611-.2666h1.28857c.14014,0,.26611.12598.26611.2666v7.8584h3.57178c.1543,0,.26611.12598.26611.26562v1.14844c0,.14062-.11182.2666-.26611.2666h-5.12646c-.1543,0-.26611-.12598-.26611-.2666v-9.27246Z"/>
          <path class="cls-1" d="m127.56606,26.68262c2.80176,0,5.04297,2.25488,5.04297,5.05664s-2.24121,5.02832-5.04297,5.02832-5.02881-2.22656-5.02881-5.02832,2.22705-5.05664,5.02881-5.05664Zm0,8.26465c1.76514,0,3.22168-1.44336,3.22168-3.20801s-1.45654-3.23535-3.22168-3.23535-3.20752,1.4707-3.20752,3.23535,1.44238,3.20801,3.20752,3.20801Z"/>
          <path class="cls-1" d="m138.756,26.68262c1.26074,0,2.46533.49023,3.41797,1.30273.11182.1123.12598.28027.01367.39258l-.86816.91016c-.1123.1123-.23828.1123-.36426,0-.60254-.53223-1.34473-.8125-2.11523-.8125-1.75098,0-3.1377,1.49902-3.1377,3.25,0,1.73633,1.38672,3.20703,3.15186,3.20703.78418,0,1.38672-.2373,1.66699-.34961v-1.19043h-1.12061c-.1543,0-.26611-.1123-.26611-.25293v-1.10645c0-.1543.11182-.26562.26611-.26562h2.68945c.14014,0,.25195.12598.25195.26562v3.58594c0,.1123-.05615.18262-.11182.22461,0,0-1.44287.91016-3.47412.91016-2.7876,0-5.02881-2.21289-5.02881-5.01465s2.24121-5.05664,5.02881-5.05664Z"/>
          <path class="cls-1" d="m144.4059,27.08887c0-.14062.12598-.2666.26611-.2666h1.30273c.13965,0,.26611.12598.26611.2666v9.27246c0,.14062-.12646.2666-.26611.2666h-1.30273c-.14014,0-.26611-.12598-.26611-.2666v-9.27246Z"/>
          <path class="cls-1" d="m148.63198,27.08887c0-.14062.11182-.2666.26611-.2666h5.70068c.1543,0,.26611.12598.26611.2666v1.14844c0,.14062-.11182.2666-.26611.2666h-4.146v2.29688h3.45996c.14014,0,.26611.12598.26611.2666v1.16211c0,.1543-.12598.2666-.26611.2666h-3.45996v2.45117h4.146c.1543,0,.26611.12598.26611.26562v1.14844c0,.14062-.11182.2666-.26611.2666h-5.70068c-.1543,0-.26611-.12598-.26611-.2666v-9.27246Z"/>
          <path class="cls-1" d="m156.18178,35.25488l.50439-.86816c.1123-.19629.3501-.19629.47656-.09766.06982.04199,1.20459.86816,2.11475.86816.72852,0,1.2749-.47656,1.2749-1.0791,0-.71387-.60254-1.2041-1.77881-1.68066-1.31689-.53223-2.63379-1.37305-2.63379-3.02539,0-1.24707.9248-2.68945,3.15186-2.68945,1.42871,0,2.52148.72852,2.80176.93848.13965.08398.18164.32227.08398.46191l-.53223.79883c-.1123.16797-.32227.28027-.49072.16797-.11182-.07031-1.17627-.77051-1.94678-.77051-.79834,0-1.23291.53223-1.23291.98047,0,.6582.51855,1.10645,1.65283,1.56934,1.35889.5459,2.92773,1.3584,2.92773,3.16504,0,1.44336-1.24658,2.77344-3.22168,2.77344-1.76514,0-2.80127-.82617-3.08154-1.0918-.12598-.12598-.19629-.19629-.07031-.4209Z"/>
        </g>
      </g>
      <g>
        <path class="cls-1" d="m7.33308,15.01744l4.75659-.04077-.7927-4.6903c-.11289-.66703.33662-1.2995,1.00367-1.41205.67152-.1121,1.2995.33662,1.41205,1.00367l1.03235,6.10716c.05971.35354-.03859.71594-.26874.9907-.21918.26187-.53686.41932-.87581.43686-.01741.0009-.03519.00114-.05298.00137l-6.19378.05285c-.67631.00625-1.2295-.53806-1.23538-1.21405-.00558-.67669.5261-1.20937,1.21474-1.23542Z"/>
        <path class="cls-1" d="m.02335,20.06676c.49151,9.49882,8.61933,16.82688,18.11849,16.33535,1.24982-.06467,2.48188-.2708,3.6767-.59787.4434.48633.90331.94785,1.39309,1.3582,1.90189,1.59369,4.2872,2.39025,6.75202,2.26271.12083-.00625.24122-.01454.36215-.02558,2.16106-.19054,4.14639-1.08182,5.71755-2.52632.29748.25259.73697.66657.66432,1.01532-.07983.38198-.3456.62983-.84819,1.06997-.6469.56807-1.53315,1.34567-1.83544,2.79262-.41435,1.98666,1.47932,3.42814,1.69695,3.58595.23581.17193.51245.2466.78245.23263.3567-.01846.70231-.19172.92851-.50324.39743-.54764.27634-1.3135-.27129-1.71092-.34609-.25932-.79991-.80808-.73822-1.10425.12834-.61517.46663-.93659,1.05265-1.45087.61486-.53904,1.37997-1.21043,1.63097-2.41172.35407-1.69639-.89023-2.88432-1.47677-3.38206,1.19028-1.82043,1.74015-3.96949,1.5459-6.16904-.22862-2.59272-1.45321-4.94088-3.44812-6.61259-.42216-.35361-.88021-.67661-1.35281-.98654.11637-.97563.15443-1.96637.1033-2.95455-.49154-9.4995-8.61936-16.82756-18.11852-16.33604C6.85987,2.43944-.46819,10.56726.02335,20.06676Zm24.76201,15.2181c-4.47992-3.7534-6.85479-12.08008-7.66799-15.48656-.07118-.2975-.02482-.43338-.0129-.44769.01417-.01716.11096-.07145.32839-.08271.05666-.00293.12169-.00287.19585.0015,3.48152.20728,12.06117,1.09402,16.52496,4.83319,1.49298,1.25138,2.40982,3.00967,2.58108,4.95029s-.4236,3.83189-1.67496,5.32521c-1.25102,1.4933-3.00899,2.40978-4.94959,2.58139-1.93573.16656-3.83191-.42394-5.32485-1.67463ZM2.47008,19.94016c-.42171-8.14984,5.86572-15.12381,14.01556-15.54551,8.14984-.42171,15.12348,5.86608,15.54519,14.01591.02648.51167.02595,1.02405.0003,1.53363-4.73642-2.20511-10.65962-2.90588-14.25652-3.12054-1.0742-.06352-1.97777.27347-2.54705.95252-.55804.66478-.7332,1.58561-.4929,2.59173.825,3.45583,2.50454,9.05034,5.4149,13.31654-.70145.13897-1.41408.23369-2.13431.27096-8.14984.42171-15.12345-5.86539-15.54515-14.01523Z"/>
      </g>
    </g>
  </g>
</svg>