<?xml version="1.0" encoding="UTF-8"?>
<svg xmlns="http://www.w3.org/2000/svg" xmlns:xlink="http://www.w3.org/1999/xlink" version="1.1" x="0" y="0"
  viewBox="0 0 100 100" xml:space="preserve">
  <g>
    <linearGradient id="a" gradientUnits="userSpaceOnUse">
      <stop stop-opacity="1" stop-color="#bf07f0" offset="0" />
      <stop stop-opacity="1" stop-color="#4264fb" offset="1" />
    </linearGradient>
    <path fill="url(#a)" fill-rule="evenodd"
      d="M3.81 61.082a9.213 9.213 0 0 0-1.31 4.751 9.243 9.243 0 0 0 4.71 8.054L37.824 91.11a24.851 24.851 0 0 0 24.357 0L92.79 73.89a9.244 9.244 0 0 0 3.396-12.805 9.259 9.259 0 0 1-3.397 3.308L62.18 81.611a24.851 24.851 0 0 1-24.357 0L7.211 64.39a9.244 9.244 0 0 1-3.4-3.308zm0-15.829a9.213 9.213 0 0 0-1.31 4.752 9.243 9.243 0 0 0 4.71 8.054c8.684 4.884 21.565 12.13 30.613 17.221a24.851 24.851 0 0 0 24.357 0l30.61-17.218a9.244 9.244 0 0 0 3.396-12.806 9.259 9.259 0 0 1-3.397 3.309c-8.683 4.884-21.561 12.127-30.609 17.218a24.851 24.851 0 0 1-24.357 0L7.211 48.56a9.244 9.244 0 0 1-3.4-3.308zM62.159 8.892a24.833 24.833 0 0 0-24.36.006c-9.045 5.09-21.913 12.337-30.59 17.222a9.243 9.243 0 0 0 .003 16.11l30.612 17.222a24.851 24.851 0 0 0 24.357 0l30.61-17.219a9.244 9.244 0 0 0 0-16.113L62.157 8.892z"
      clip-rule="evenodd" opacity="1" data-original="url(#a)" class="" />
  </g>
</svg>