<svg id="canvas" height="100%" xmlns="http://www.w3.org/2000/svg" version="1.1" xmlns:xlink="http://www.w3.org/1999/xlink" xmlns:svgjs="http://svgjs.dev/svgjs" viewBox="0 0 600 600"><rect width="600" height="600" fill="transparent"></rect><mask id="mask" mask-type="alpha" maskUnits="userSpaceOnUse"><rect transform="translate(0, 0)" width="600" height="600" fill="white"></rect></mask><svg><path transform="translate(0, 0 translate(30,30) rotate(180) translate(-30,-30)" d="M0 60C33.1371 60 60 33.1371 60 5.24537e-06L5.24537e-06 0L0 60Z" fill="#2c2e8f"></path></svg><svg><path transform="translate(0, 3600 translate(30,30) rotate(270) translate(-30,-30)" d="M0 60C33.1371 60 60 33.1371 60 5.24537e-06L5.24537e-06 0L0 60Z" fill="#D3CBFF"></path></svg><svg><path transform="
    translate(0, 120)
    " d="M0 0h60v60H0z" fill="
    #D3CBFF"></path></svg><svg><path transform="translate(0, 10800 translate(30,30) rotate(270) translate(-30,-30)" d="M0 60C33.1371 60 60 33.1371 60 5.24537e-06L5.24537e-06 0L0 60Z" fill="#7A63FC"></path></svg><svg><path transform="translate(0,240) translate(30,30) rotate(270) translate(-30,-30)" fill="#ECE8FF" d="M60 0v60H0V0z"></path><path transform="translate(0,240) translate(30,30) rotate(270) translate(-30,-30)" fill="#2c2e8f" d="M60 0v60H0C0 26.863 26.863 0 60 0z"></path></svg><svg><path transform="translate(0, 300) translate(30,30) rotate(180) translate(-30,-30)" fill="#4264FB" d="M0 0h60v60H0z"></path><circle cx="30" cy="30" r="30" transform="translate(0, 300) translate(30,30) rotate(180) translate(-30,-30)" fill="#F6F3FF"></circle></svg><svg><path transform="translate(0,360) translate(30,30) rotate(90) translate(-30,-30)" fill="#A23EF7" d="M60 0v60H0V0z"></path><path transform="translate(0,360) translate(30,30) rotate(90) translate(-30,-30)" fill="#F6F3FF" d="M60 0v60H0C0 26.863 26.863 0 60 0z"></path></svg><svg><path transform="translate(0, 25200 translate(30,30) rotate(270) translate(-30,-30)" d="M0 60C33.1371 60 60 33.1371 60 5.24537e-06L5.24537e-06 0L0 60Z" fill="#7A63FC"></path></svg><svg><circle cx="30" cy="30" r="30" transform="
    translate(0, 480)
    " fill="
    #BF07F0
    "></circle></svg><svg><circle cx="30" cy="30" r="30" transform="
    translate(0, 540)
    " fill="
    #D3CBFF
    "></circle></svg><svg><path transform="translate(3600, 0 translate(30,30) rotate(0) translate(-30,-30)" d="M0 60C33.1371 60 60 33.1371 60 5.24537e-06L5.24537e-06 0L0 60Z" fill="#ECE8FF"></path></svg><svg><path transform="
    translate(60, 60)
    " d="M0 0h60v60H0z" fill="
    #B5A8FF"></path></svg><svg><path transform="
    translate(60, 120)
    " d="M0 0h60v60H0z" fill="
    #D3CBFF"></path></svg><svg><path transform="translate(3600, 10800 translate(30,30) rotate(0) translate(-30,-30)" d="M0 60C33.1371 60 60 33.1371 60 5.24537e-06L5.24537e-06 0L0 60Z" fill="#4264FB"></path></svg><svg><path transform="translate(3600, 14400 translate(30,30) rotate(180) translate(-30,-30)" d="M0 60C33.1371 60 60 33.1371 60 5.24537e-06L5.24537e-06 0L0 60Z" fill="#2c2e8f"></path></svg><svg><path transform="
    translate(60, 300)
    " d="M0 0h60v60H0z" fill="
    #7A63FC"></path></svg><svg><circle cx="30" cy="30" r="30" transform="
    translate(60, 360)
    " fill="
    #2c2e8f
    "></circle></svg><svg><path transform="translate(60,420) translate(30,30) rotate(90) translate(-30,-30)" fill="#D3CBFF" d="M60 0v60H0V0z"></path><path transform="translate(60,420) translate(30,30) rotate(90) translate(-30,-30)" fill="#7A63FC" d="M60 0v60H0C0 26.863 26.863 0 60 0z"></path></svg><svg><path transform="translate(60,480) translate(30,30) rotate(90) translate(-30,-30)" fill="#A23EF7" d="M60 0v60H0V0z"></path><path transform="translate(60,480) translate(30,30) rotate(90) translate(-30,-30)" fill="#A23EF7" d="M60 0v60H0C0 26.863 26.863 0 60 0z"></path></svg><svg><path transform="translate(3600, 32400 translate(30,30) rotate(180) translate(-30,-30)" d="M0 60C33.1371 60 60 33.1371 60 5.24537e-06L5.24537e-06 0L0 60Z" fill="#2c2e8f"></path></svg><svg><circle cx="30" cy="30" r="30" transform="
    translate(120, 0)
    " fill="
    #7A63FC
    "></circle></svg><svg><path transform="translate(120,60) translate(30,30) rotate(180) translate(-30,-30)" fill="#F6F3FF" d="M60 0v60H0V0z"></path><path transform="translate(120,60) translate(30,30) rotate(180) translate(-30,-30)" fill="#D3CBFF" d="M60 0v60H0C0 26.863 26.863 0 60 0z"></path></svg><svg><circle cx="30" cy="30" r="30" transform="
    translate(120, 120)
    " fill="
    #7A63FC
    "></circle></svg><svg><path transform="translate(120, 180) translate(30,30) rotate(180) translate(-30,-30)" fill="#B5A8FF" d="M0 0h60v60H0z"></path><circle cx="30" cy="30" r="30" transform="translate(120, 180) translate(30,30) rotate(180) translate(-30,-30)" fill="#4264FB"></circle></svg><svg><path transform="translate(120, 240) translate(30,30) rotate(180) translate(-30,-30)" fill="#2c2e8f" d="M0 0h60v60H0z"></path><circle cx="30" cy="30" r="30" transform="translate(120, 240) translate(30,30) rotate(180) translate(-30,-30)" fill="#7A63FC"></circle></svg><svg><path transform="translate(7200, 18000 translate(30,30) rotate(270) translate(-30,-30)" d="M0 60C33.1371 60 60 33.1371 60 5.24537e-06L5.24537e-06 0L0 60Z" fill="#D3CBFF"></path></svg><svg><path transform="translate(7200, 21600 translate(30,30) rotate(90) translate(-30,-30)" d="M0 60C33.1371 60 60 33.1371 60 5.24537e-06L5.24537e-06 0L0 60Z" fill="#4264FB"></path></svg><svg><circle cx="30" cy="30" r="30" transform="
    translate(120, 420)
    " fill="
    #4264FB
    "></circle></svg><svg><path transform="
    translate(120, 480)
    " d="M0 0h60v60H0z" fill="
    #B5A8FF"></path></svg><svg><circle cx="30" cy="30" r="30" transform="
    translate(120, 540)
    " fill="
    #7A63FC
    "></circle></svg><svg><path transform="translate(10800, 0 translate(30,30) rotate(0) translate(-30,-30)" d="M0 60C33.1371 60 60 33.1371 60 5.24537e-06L5.24537e-06 0L0 60Z" fill="#7A63FC"></path></svg><svg><path transform="
    translate(180, 60)
    " d="M0 0h60v60H0z" fill="
    #4264FB"></path></svg><svg><path transform="translate(180,120) translate(30,30) rotate(90) translate(-30,-30)" fill="#ECE8FF" d="M60 0v60H0V0z"></path><path transform="translate(180,120) translate(30,30) rotate(90) translate(-30,-30)" fill="#7A63FC" d="M60 0v60H0C0 26.863 26.863 0 60 0z"></path></svg><svg><path transform="
    translate(180, 180)
    " d="M0 0h60v60H0z" fill="
    #A23EF7"></path></svg><svg><circle cx="30" cy="30" r="30" transform="
    translate(180, 240)
    " fill="
    #D3CBFF
    "></circle></svg><svg><path transform="translate(180,300) translate(30,30) rotate(0) translate(-30,-30)" fill="#A23EF7" d="M60 0v60H0V0z"></path><path transform="translate(180,300) translate(30,30) rotate(0) translate(-30,-30)" fill="#4264FB" d="M60 0v60H0C0 26.863 26.863 0 60 0z"></path></svg><svg><path transform="
    translate(180, 360)
    " d="M0 0h60v60H0z" fill="
    #7A63FC"></path></svg><svg><path transform="
    translate(180, 420)
    " d="M0 0h60v60H0z" fill="
    #D3CBFF"></path></svg><svg><path transform="
    translate(180, 480)
    " d="M0 0h60v60H0z" fill="
    #BF07F0"></path></svg><svg><path transform="translate(10800, 32400 translate(30,30) rotate(0) translate(-30,-30)" d="M0 60C33.1371 60 60 33.1371 60 5.24537e-06L5.24537e-06 0L0 60Z" fill="#ECE8FF"></path></svg><svg><path transform="translate(14400, 0 translate(30,30) rotate(180) translate(-30,-30)" d="M0 60C33.1371 60 60 33.1371 60 5.24537e-06L5.24537e-06 0L0 60Z" fill="#BF07F0"></path></svg><svg><path transform="translate(240, 60) translate(30,30) rotate(180) translate(-30,-30)" fill="#A23EF7" d="M0 0h60v60H0z"></path><circle cx="30" cy="30" r="30" transform="translate(240, 60) translate(30,30) rotate(180) translate(-30,-30)" fill="#4264FB"></circle></svg><svg><path transform="
    translate(240, 120)
    " d="M0 0h60v60H0z" fill="
    #A23EF7"></path></svg><svg><path transform="
    translate(240, 180)
    " d="M0 0h60v60H0z" fill="
    #7A63FC"></path></svg><svg><path transform="translate(14400, 14400 translate(30,30) rotate(0) translate(-30,-30)" d="M0 60C33.1371 60 60 33.1371 60 5.24537e-06L5.24537e-06 0L0 60Z" fill="#F6F3FF"></path></svg><svg><path transform="
    translate(240, 300)
    " d="M0 0h60v60H0z" fill="
    #A23EF7"></path></svg><svg><path transform="translate(240, 360) translate(30,30) rotate(270) translate(-30,-30)" fill="#BF07F0" d="M0 0h60v60H0z"></path><circle cx="30" cy="30" r="30" transform="translate(240, 360) translate(30,30) rotate(270) translate(-30,-30)" fill="#ECE8FF"></circle></svg><svg><path transform="translate(240,420) translate(30,30) rotate(270) translate(-30,-30)" fill="#4264FB" d="M60 0v60H0V0z"></path><path transform="translate(240,420) translate(30,30) rotate(270) translate(-30,-30)" fill="#7A63FC" d="M60 0v60H0C0 26.863 26.863 0 60 0z"></path></svg><svg><path transform="translate(240,480) translate(30,30) rotate(180) translate(-30,-30)" fill="#B5A8FF" d="M60 0v60H0V0z"></path><path transform="translate(240,480) translate(30,30) rotate(180) translate(-30,-30)" fill="#A23EF7" d="M60 0v60H0C0 26.863 26.863 0 60 0z"></path></svg><svg><circle cx="30" cy="30" r="30" transform="
    translate(240, 540)
    " fill="
    #D3CBFF
    "></circle></svg><svg><path transform="translate(18000, 0 translate(30,30) rotate(270) translate(-30,-30)" d="M0 60C33.1371 60 60 33.1371 60 5.24537e-06L5.24537e-06 0L0 60Z" fill="#BF07F0"></path></svg><svg><path transform="
    translate(300, 60)
    " d="M0 0h60v60H0z" fill="
    #4264FB"></path></svg><svg><path transform="translate(18000, 7200 translate(30,30) rotate(90) translate(-30,-30)" d="M0 60C33.1371 60 60 33.1371 60 5.24537e-06L5.24537e-06 0L0 60Z" fill="#ECE8FF"></path></svg><svg><path transform="
    translate(300, 180)
    " d="M0 0h60v60H0z" fill="
    #F6F3FF"></path></svg><svg><path transform="translate(300,240) translate(30,30) rotate(270) translate(-30,-30)" fill="#A23EF7" d="M60 0v60H0V0z"></path><path transform="translate(300,240) translate(30,30) rotate(270) translate(-30,-30)" fill="#A23EF7" d="M60 0v60H0C0 26.863 26.863 0 60 0z"></path></svg><svg><path transform="
    translate(300, 300)
    " d="M0 0h60v60H0z" fill="
    #2c2e8f"></path></svg><svg><path transform="translate(18000, 21600 translate(30,30) rotate(0) translate(-30,-30)" d="M0 60C33.1371 60 60 33.1371 60 5.24537e-06L5.24537e-06 0L0 60Z" fill="#B5A8FF"></path></svg><svg><path transform="
    translate(300, 420)
    " d="M0 0h60v60H0z" fill="
    #D3CBFF"></path></svg><svg><path transform="translate(18000, 28800 translate(30,30) rotate(90) translate(-30,-30)" d="M0 60C33.1371 60 60 33.1371 60 5.24537e-06L5.24537e-06 0L0 60Z" fill="#4264FB"></path></svg><svg><path transform="translate(300,540) translate(30,30) rotate(0) translate(-30,-30)" fill="#B5A8FF" d="M60 0v60H0V0z"></path><path transform="translate(300,540) translate(30,30) rotate(0) translate(-30,-30)" fill="#D3CBFF" d="M60 0v60H0C0 26.863 26.863 0 60 0z"></path></svg><svg><path transform="translate(360,0) translate(30,30) rotate(270) translate(-30,-30)" fill="#BF07F0" d="M60 0v60H0V0z"></path><path transform="translate(360,0) translate(30,30) rotate(270) translate(-30,-30)" fill="#D3CBFF" d="M60 0v60H0C0 26.863 26.863 0 60 0z"></path></svg><svg><circle cx="30" cy="30" r="30" transform="
    translate(360, 60)
    " fill="
    #F6F3FF
    "></circle></svg><svg><path transform="translate(360,120) translate(30,30) rotate(180) translate(-30,-30)" fill="#F6F3FF" d="M60 0v60H0V0z"></path><path transform="translate(360,120) translate(30,30) rotate(180) translate(-30,-30)" fill="#A23EF7" d="M60 0v60H0C0 26.863 26.863 0 60 0z"></path></svg><svg><path transform="
    translate(360, 180)
    " d="M0 0h60v60H0z" fill="
    #BF07F0"></path></svg><svg><path transform="translate(360,240) translate(30,30) rotate(270) translate(-30,-30)" fill="#7A63FC" d="M60 0v60H0V0z"></path><path transform="translate(360,240) translate(30,30) rotate(270) translate(-30,-30)" fill="#7A63FC" d="M60 0v60H0C0 26.863 26.863 0 60 0z"></path></svg><svg><path transform="translate(360, 300) translate(30,30) rotate(180) translate(-30,-30)" fill="#A23EF7" d="M0 0h60v60H0z"></path><circle cx="30" cy="30" r="30" transform="translate(360, 300) translate(30,30) rotate(180) translate(-30,-30)" fill="#4264FB"></circle></svg><svg><path transform="
    translate(360, 360)
    " d="M0 0h60v60H0z" fill="
    #ECE8FF"></path></svg><svg><path transform="translate(360,420) translate(30,30) rotate(90) translate(-30,-30)" fill="#A23EF7" d="M60 0v60H0V0z"></path><path transform="translate(360,420) translate(30,30) rotate(90) translate(-30,-30)" fill="#A23EF7" d="M60 0v60H0C0 26.863 26.863 0 60 0z"></path></svg><svg><circle cx="30" cy="30" r="30" transform="
    translate(360, 480)
    " fill="
    #ECE8FF
    "></circle></svg><svg><circle cx="30" cy="30" r="30" transform="
    translate(360, 540)
    " fill="
    #ECE8FF
    "></circle></svg><svg><path transform="translate(420,0) translate(30,30) rotate(270) translate(-30,-30)" fill="#4264FB" d="M60 0v60H0V0z"></path><path transform="translate(420,0) translate(30,30) rotate(270) translate(-30,-30)" fill="#A23EF7" d="M60 0v60H0C0 26.863 26.863 0 60 0z"></path></svg><svg><path transform="translate(25200, 3600 translate(30,30) rotate(0) translate(-30,-30)" d="M0 60C33.1371 60 60 33.1371 60 5.24537e-06L5.24537e-06 0L0 60Z" fill="#A23EF7"></path></svg><svg><path transform="
    translate(420, 120)
    " d="M0 0h60v60H0z" fill="
    #B5A8FF"></path></svg><svg><path transform="translate(420,180) translate(30,30) rotate(90) translate(-30,-30)" fill="#BF07F0" d="M60 0v60H0V0z"></path><path transform="translate(420,180) translate(30,30) rotate(90) translate(-30,-30)" fill="#4264FB" d="M60 0v60H0C0 26.863 26.863 0 60 0z"></path></svg><svg><path transform="translate(25200, 14400 translate(30,30) rotate(270) translate(-30,-30)" d="M0 60C33.1371 60 60 33.1371 60 5.24537e-06L5.24537e-06 0L0 60Z" fill="#B5A8FF"></path></svg><svg><path transform="translate(420,300) translate(30,30) rotate(180) translate(-30,-30)" fill="#7A63FC" d="M60 0v60H0V0z"></path><path transform="translate(420,300) translate(30,30) rotate(180) translate(-30,-30)" fill="#B5A8FF" d="M60 0v60H0C0 26.863 26.863 0 60 0z"></path></svg><svg><path transform="translate(25200, 21600 translate(30,30) rotate(180) translate(-30,-30)" d="M0 60C33.1371 60 60 33.1371 60 5.24537e-06L5.24537e-06 0L0 60Z" fill="#4264FB"></path></svg><svg><circle cx="30" cy="30" r="30" transform="
    translate(420, 420)
    " fill="
    #4264FB
    "></circle></svg><svg><path transform="translate(420,480) translate(30,30) rotate(90) translate(-30,-30)" fill="#ECE8FF" d="M60 0v60H0V0z"></path><path transform="translate(420,480) translate(30,30) rotate(90) translate(-30,-30)" fill="#F6F3FF" d="M60 0v60H0C0 26.863 26.863 0 60 0z"></path></svg><svg><path transform="
    translate(420, 540)
    " d="M0 0h60v60H0z" fill="
    #ECE8FF"></path></svg><svg><circle cx="30" cy="30" r="30" transform="
    translate(480, 0)
    " fill="
    #2c2e8f
    "></circle></svg><svg><path transform="
    translate(480, 60)
    " d="M0 0h60v60H0z" fill="
    #4264FB"></path></svg><svg><path transform="translate(28800, 7200 translate(30,30) rotate(270) translate(-30,-30)" d="M0 60C33.1371 60 60 33.1371 60 5.24537e-06L5.24537e-06 0L0 60Z" fill="#7A63FC"></path></svg><svg><path transform="translate(480,180) translate(30,30) rotate(90) translate(-30,-30)" fill="#B5A8FF" d="M60 0v60H0V0z"></path><path transform="translate(480,180) translate(30,30) rotate(90) translate(-30,-30)" fill="#ECE8FF" d="M60 0v60H0C0 26.863 26.863 0 60 0z"></path></svg><svg><path transform="
    translate(480, 240)
    " d="M0 0h60v60H0z" fill="
    #B5A8FF"></path></svg><svg><path transform="
    translate(480, 300)
    " d="M0 0h60v60H0z" fill="
    #D3CBFF"></path></svg><svg><path transform="translate(480, 360) translate(30,30) rotate(270) translate(-30,-30)" fill="#ECE8FF" d="M0 0h60v60H0z"></path><circle cx="30" cy="30" r="30" transform="translate(480, 360) translate(30,30) rotate(270) translate(-30,-30)" fill="#2c2e8f"></circle></svg><svg><path transform="translate(480,420) translate(30,30) rotate(180) translate(-30,-30)" fill="#D3CBFF" d="M60 0v60H0V0z"></path><path transform="translate(480,420) translate(30,30) rotate(180) translate(-30,-30)" fill="#F6F3FF" d="M60 0v60H0C0 26.863 26.863 0 60 0z"></path></svg><svg><circle cx="30" cy="30" r="30" transform="
    translate(480, 480)
    " fill="
    #2c2e8f
    "></circle></svg><svg><path transform="translate(28800, 32400 translate(30,30) rotate(90) translate(-30,-30)" d="M0 60C33.1371 60 60 33.1371 60 5.24537e-06L5.24537e-06 0L0 60Z" fill="#7A63FC"></path></svg><svg><path transform="translate(540,0) translate(30,30) rotate(270) translate(-30,-30)" fill="#D3CBFF" d="M60 0v60H0V0z"></path><path transform="translate(540,0) translate(30,30) rotate(270) translate(-30,-30)" fill="#4264FB" d="M60 0v60H0C0 26.863 26.863 0 60 0z"></path></svg><svg><path transform="translate(540, 60) translate(30,30) rotate(270) translate(-30,-30)" fill="#BF07F0" d="M0 0h60v60H0z"></path><circle cx="30" cy="30" r="30" transform="translate(540, 60) translate(30,30) rotate(270) translate(-30,-30)" fill="#BF07F0"></circle></svg><svg><path transform="translate(540, 120) translate(30,30) rotate(90) translate(-30,-30)" fill="#D3CBFF" d="M0 0h60v60H0z"></path><circle cx="30" cy="30" r="30" transform="translate(540, 120) translate(30,30) rotate(90) translate(-30,-30)" fill="#A23EF7"></circle></svg><svg><path transform="translate(32400, 10800 translate(30,30) rotate(0) translate(-30,-30)" d="M0 60C33.1371 60 60 33.1371 60 5.24537e-06L5.24537e-06 0L0 60Z" fill="#D3CBFF"></path></svg><svg><path transform="translate(540, 240) translate(30,30) rotate(90) translate(-30,-30)" fill="#A23EF7" d="M0 0h60v60H0z"></path><circle cx="30" cy="30" r="30" transform="translate(540, 240) translate(30,30) rotate(90) translate(-30,-30)" fill="#BF07F0"></circle></svg><svg><path transform="
    translate(540, 300)
    " d="M0 0h60v60H0z" fill="
    #4264FB"></path></svg><svg><path transform="translate(540, 360) translate(30,30) rotate(0) translate(-30,-30)" fill="#7A63FC" d="M0 0h60v60H0z"></path><circle cx="30" cy="30" r="30" transform="translate(540, 360) translate(30,30) rotate(0) translate(-30,-30)" fill="#7A63FC"></circle></svg><svg><path transform="
    translate(540, 420)
    " d="M0 0h60v60H0z" fill="
    #BF07F0"></path></svg><svg><path transform="
    translate(540, 480)
    " d="M0 0h60v60H0z" fill="
    #B5A8FF"></path></svg><svg><circle cx="30" cy="30" r="30" transform="
    translate(540, 540)
    " fill="
    #A23EF7
    "></circle></svg></svg>