<svg height="100%" xmlns="http://www.w3.org/2000/svg" version="1.1"
    xmlns:xlink="http://www.w3.org/1999/xlink" xmlns:svgjs="http://svgjs.dev/svgjs"
    viewBox="0 0 600 600">
    <rect width="600" height="600" fill="transparent"></rect>
    <mask id="mask" mask-type="alpha" maskUnits="userSpaceOnUse">
        <rect transform="translate(0, 0)" width="600" height="600" fill="white"></rect>
    </mask>
    <svg>
        <rect transform="translate(0, 0)" fill="#E0F4E8" width="60" height="60"></rect>
        <rect transform="translate(0, 0)" fill="#C6EBD4" x="15" y="15" width="30" height="30"></rect>
    </svg>
    <svg>
        <rect transform="translate(0, 60)" fill="#C6EBD4" width="60" height="60"></rect>
        <path transform="translate(0, 60) translate(30,30) rotate(180) translate(-30,-30)"
            fill="#62C992" d="M60 0H0v60L60 0z"></path>
    </svg>
    <svg>
        <rect transform="translate(0, 120)" fill="#62C992" width="60" height="60"></rect>
        <rect transform="translate(0, 120)" fill="#9BD9B6" x="15" y="15" width="30" height="30"></rect>
    </svg>
    <svg>
        <rect transform="translate(0, 180)" fill="#E0F4E8" width="60" height="60"></rect>
        <path transform="translate(0, 180) translate(30,30) rotate(0) translate(-30,-30)"
            fill="#33B978" d="M60 0H0v60L60 0z"></path>
        <rect transform="translate(0, 180)" fill="#263238" x="15" y="15" width="30" height="30"></rect>
    </svg>
    <svg>
        <rect transform="translate(0, 240)" fill="#1FA463" width="60" height="60"></rect>
        <path transform="translate(0, 240) translate(30,30) rotate(270) translate(-30,-30)"
            fill="#C6EBD4" d="M60 0H0v60L60 0z"></path>
        <rect transform="translate(0, 240)" fill="#E0F4E8" x="15" y="15" width="30" height="30"></rect>
    </svg>
    <svg>
        <rect transform="translate(0, 300)" fill="#E0F4E8" width="60" height="60"></rect>
        <path transform="translate(0, 300) translate(30,30) rotate(270) translate(-30,-30)"
            fill="#33B978" d="M60 0H0v60L60 0z"></path>
    </svg>
    <svg>
        <rect transform="translate(0, 360)" fill="#33B978" width="60" height="60"></rect>
        <path transform="translate(0, 360) translate(30,30) rotate(270) translate(-30,-30)"
            fill="#E0F4E8" d="M60 0H0v60L60 0z"></path>
        <rect transform="translate(0, 360)" fill="#2B6F73" x="15" y="15" width="30" height="30"></rect>
    </svg>
    <svg>
        <rect transform="translate(0, 420)" fill="#1FA463" width="60" height="60"></rect>
        <path transform="translate(0, 420) translate(30,30) rotate(90) translate(-30,-30)"
            fill="#62C992" d="M60 0H0v60L60 0z"></path>
        <rect transform="translate(0, 420)" fill="#9BD9B6" x="15" y="15" width="30" height="30"></rect>
    </svg>
    <svg>
        <rect transform="translate(0, 480)" fill="#E0F4E8" width="60" height="60"></rect>
        <rect transform="translate(0, 480)" fill="#62C992" x="15" y="15" width="30" height="30"></rect>
    </svg>
    <svg>
        <rect transform="translate(0, 540)" fill="#62C992" width="60" height="60"></rect>
        <path transform="translate(0, 540) translate(30,30) rotate(90) translate(-30,-30)"
            fill="#E0F4E8" d="M60 0H0v60L60 0z"></path>
        <rect transform="translate(0, 540)" fill="#9BD9B6" x="15" y="15" width="30" height="30"></rect>
    </svg>
    <svg>
        <rect transform="translate(60, 0)" fill="#33B978" width="60" height="60"></rect>
        <path transform="translate(60, 0) translate(30,30) rotate(0) translate(-30,-30)"
            fill="#2B6F73" d="M60 0H0v60L60 0z"></path>
    </svg>
    <svg>
        <rect transform="translate(60, 60)" fill="#9BD9B6" width="60" height="60"></rect>
        <path transform="translate(60, 60) translate(30,30) rotate(0) translate(-30,-30)"
            fill="#E0F4E8" d="M60 0H0v60L60 0z"></path>
        <rect transform="translate(60, 60)" fill="#EEF9F2" x="15" y="15" width="30" height="30"></rect>
    </svg>
    <svg>
        <rect transform="translate(60, 120)" fill="#E0F4E8" width="60" height="60"></rect>
        <path transform="translate(60, 120) translate(30,30) rotate(90) translate(-30,-30)"
            fill="#C6EBD4" d="M60 0H0v60L60 0z"></path>
    </svg>
    <svg>
        <rect transform="translate(60, 180)" fill="#2B6F73" width="60" height="60"></rect>
        <path transform="translate(60, 180) translate(30,30) rotate(90) translate(-30,-30)"
            fill="#62C992" d="M60 0H0v60L60 0z"></path>
    </svg>
    <svg>
        <rect transform="translate(60, 240)" fill="#2B6F73" width="60" height="60"></rect>
        <path transform="translate(60, 240) translate(30,30) rotate(90) translate(-30,-30)"
            fill="#1FA463" d="M60 0H0v60L60 0z"></path>
    </svg>
    <svg>
        <rect transform="translate(60, 300)" fill="#1FA463" width="60" height="60"></rect>
        <rect transform="translate(60, 300)" fill="#C6EBD4" x="15" y="15" width="30" height="30"></rect>
    </svg>
    <svg>
        <rect transform="translate(60, 360)" fill="#9BD9B6" width="60" height="60"></rect>
        <path transform="translate(60, 360) translate(30,30) rotate(0) translate(-30,-30)"
            fill="#E0F4E8" d="M60 0H0v60L60 0z"></path>
        <rect transform="translate(60, 360)" fill="#C6EBD4" x="15" y="15" width="30" height="30"></rect>
    </svg>
    <svg>
        <rect transform="translate(60, 420)" fill="#EEF9F2" width="60" height="60"></rect>
        <path transform="translate(60, 420) translate(30,30) rotate(90) translate(-30,-30)"
            fill="#263238" d="M60 0H0v60L60 0z"></path>
    </svg>
    <svg>
        <rect transform="translate(60, 480)" fill="#9BD9B6" width="60" height="60"></rect>
        <path transform="translate(60, 480) translate(30,30) rotate(90) translate(-30,-30)"
            fill="#2B6F73" d="M60 0H0v60L60 0z"></path>
        <rect transform="translate(60, 480)" fill="#1FA463" x="15" y="15" width="30" height="30"></rect>
    </svg>
    <svg>
        <rect transform="translate(60, 540)" fill="#9BD9B6" width="60" height="60"></rect>
        <path transform="translate(60, 540) translate(30,30) rotate(0) translate(-30,-30)"
            fill="#1FA463" d="M60 0H0v60L60 0z"></path>
        <rect transform="translate(60, 540)" fill="#E0F4E8" x="15" y="15" width="30" height="30"></rect>
    </svg>
    <svg>
        <rect transform="translate(120, 0)" fill="#1FA463" width="60" height="60"></rect>
        <path transform="translate(120, 0) translate(30,30) rotate(0) translate(-30,-30)"
            fill="#62C992" d="M60 0H0v60L60 0z"></path>
    </svg>
    <svg>
        <rect transform="translate(120, 60)" fill="#C6EBD4" width="60" height="60"></rect>
        <rect transform="translate(120, 60)" fill="#2B6F73" x="15" y="15" width="30" height="30"></rect>
    </svg>
    <svg>
        <rect transform="translate(120, 120)" fill="#1FA463" width="60" height="60"></rect>
        <path transform="translate(120, 120) translate(30,30) rotate(180) translate(-30,-30)"
            fill="#62C992" d="M60 0H0v60L60 0z"></path>
    </svg>
    <svg>
        <rect transform="translate(120, 180)" fill="#C6EBD4" width="60" height="60"></rect>
        <path transform="translate(120, 180) translate(30,30) rotate(180) translate(-30,-30)"
            fill="#263238" d="M60 0H0v60L60 0z"></path>
    </svg>
    <svg>
        <rect transform="translate(120, 240)" fill="#33B978" width="60" height="60"></rect>
        <path transform="translate(120, 240) translate(30,30) rotate(90) translate(-30,-30)"
            fill="#E0F4E8" d="M60 0H0v60L60 0z"></path>
    </svg>
    <svg>
        <rect transform="translate(120, 300)" fill="#62C992" width="60" height="60"></rect>
        <rect transform="translate(120, 300)" fill="#2B6F73" x="15" y="15" width="30" height="30"></rect>
    </svg>
    <svg>
        <rect transform="translate(120, 360)" fill="#62C992" width="60" height="60"></rect>
        <path transform="translate(120, 360) translate(30,30) rotate(0) translate(-30,-30)"
            fill="#263238" d="M60 0H0v60L60 0z"></path>
    </svg>
    <svg>
        <rect transform="translate(120, 420)" fill="#33B978" width="60" height="60"></rect>
        <path transform="translate(120, 420) translate(30,30) rotate(180) translate(-30,-30)"
            fill="#62C992" d="M60 0H0v60L60 0z"></path>
    </svg>
    <svg>
        <rect transform="translate(120, 480)" fill="#2B6F73" width="60" height="60"></rect>
        <path transform="translate(120, 480) translate(30,30) rotate(90) translate(-30,-30)"
            fill="#9BD9B6" d="M60 0H0v60L60 0z"></path>
    </svg>
    <svg>
        <rect transform="translate(120, 540)" fill="#263238" width="60" height="60"></rect>
        <path transform="translate(120, 540) translate(30,30) rotate(0) translate(-30,-30)"
            fill="#C6EBD4" d="M60 0H0v60L60 0z"></path>
    </svg>
    <svg>
        <rect transform="translate(180, 0)" fill="#C6EBD4" width="60" height="60"></rect>
        <path transform="translate(180, 0) translate(30,30) rotate(270) translate(-30,-30)"
            fill="#2B6F73" d="M60 0H0v60L60 0z"></path>
        <rect transform="translate(180, 0)" fill="#9BD9B6" x="15" y="15" width="30" height="30"></rect>
    </svg>
    <svg>
        <rect transform="translate(180, 60)" fill="#263238" width="60" height="60"></rect>
        <rect transform="translate(180, 60)" fill="#62C992" x="15" y="15" width="30" height="30"></rect>
    </svg>
    <svg>
        <rect transform="translate(180, 120)" fill="#1FA463" width="60" height="60"></rect>
        <rect transform="translate(180, 120)" fill="#C6EBD4" x="15" y="15" width="30" height="30"></rect>
    </svg>
    <svg>
        <rect transform="translate(180, 180)" fill="#33B978" width="60" height="60"></rect>
        <path transform="translate(180, 180) translate(30,30) rotate(180) translate(-30,-30)"
            fill="#1FA463" d="M60 0H0v60L60 0z"></path>
        <rect transform="translate(180, 180)" fill="#C6EBD4" x="15" y="15" width="30" height="30"></rect>
    </svg>
    <svg>
        <rect transform="translate(180, 240)" fill="#E0F4E8" width="60" height="60"></rect>
        <path transform="translate(180, 240) translate(30,30) rotate(270) translate(-30,-30)"
            fill="#1FA463" d="M60 0H0v60L60 0z"></path>
    </svg>
    <svg>
        <rect transform="translate(180, 300)" fill="#2B6F73" width="60" height="60"></rect>
        <rect transform="translate(180, 300)" fill="#62C992" x="15" y="15" width="30" height="30"></rect>
    </svg>
    <svg>
        <rect transform="translate(180, 360)" fill="#62C992" width="60" height="60"></rect>
        <path transform="translate(180, 360) translate(30,30) rotate(180) translate(-30,-30)"
            fill="#1FA463" d="M60 0H0v60L60 0z"></path>
        <rect transform="translate(180, 360)" fill="#33B978" x="15" y="15" width="30" height="30"></rect>
    </svg>
    <svg>
        <rect transform="translate(180, 420)" fill="#2B6F73" width="60" height="60"></rect>
        <path transform="translate(180, 420) translate(30,30) rotate(270) translate(-30,-30)"
            fill="#9BD9B6" d="M60 0H0v60L60 0z"></path>
    </svg>
    <svg>
        <rect transform="translate(180, 480)" fill="#9BD9B6" width="60" height="60"></rect>
        <path transform="translate(180, 480) translate(30,30) rotate(270) translate(-30,-30)"
            fill="#E0F4E8" d="M60 0H0v60L60 0z"></path>
        <rect transform="translate(180, 480)" fill="#62C992" x="15" y="15" width="30" height="30"></rect>
    </svg>
    <svg>
        <rect transform="translate(180, 540)" fill="#1FA463" width="60" height="60"></rect>
        <path transform="translate(180, 540) translate(30,30) rotate(90) translate(-30,-30)"
            fill="#62C992" d="M60 0H0v60L60 0z"></path>
    </svg>
    <svg>
        <rect transform="translate(240, 0)" fill="#E0F4E8" width="60" height="60"></rect>
        <path transform="translate(240, 0) translate(30,30) rotate(270) translate(-30,-30)"
            fill="#EEF9F2" d="M60 0H0v60L60 0z"></path>
    </svg>
    <svg>
        <rect transform="translate(240, 60)" fill="#9BD9B6" width="60" height="60"></rect>
        <path transform="translate(240, 60) translate(30,30) rotate(180) translate(-30,-30)"
            fill="#263238" d="M60 0H0v60L60 0z"></path>
    </svg>
    <svg>
        <rect transform="translate(240, 120)" fill="#EEF9F2" width="60" height="60"></rect>
        <path transform="translate(240, 120) translate(30,30) rotate(270) translate(-30,-30)"
            fill="#C6EBD4" d="M60 0H0v60L60 0z"></path>
        <rect transform="translate(240, 120)" fill="#9BD9B6" x="15" y="15" width="30" height="30"></rect>
    </svg>
    <svg>
        <rect transform="translate(240, 180)" fill="#9BD9B6" width="60" height="60"></rect>
        <path transform="translate(240, 180) translate(30,30) rotate(0) translate(-30,-30)"
            fill="#263238" d="M60 0H0v60L60 0z"></path>
        <rect transform="translate(240, 180)" fill="#62C992" x="15" y="15" width="30" height="30"></rect>
    </svg>
    <svg>
        <rect transform="translate(240, 240)" fill="#9BD9B6" width="60" height="60"></rect>
        <rect transform="translate(240, 240)" fill="#62C992" x="15" y="15" width="30" height="30"></rect>
    </svg>
    <svg>
        <rect transform="translate(240, 300)" fill="#2B6F73" width="60" height="60"></rect>
        <path transform="translate(240, 300) translate(30,30) rotate(90) translate(-30,-30)"
            fill="#C6EBD4" d="M60 0H0v60L60 0z"></path>
        <rect transform="translate(240, 300)" fill="#1FA463" x="15" y="15" width="30" height="30"></rect>
    </svg>
    <svg>
        <rect transform="translate(240, 360)" fill="#9BD9B6" width="60" height="60"></rect>
        <path transform="translate(240, 360) translate(30,30) rotate(270) translate(-30,-30)"
            fill="#EEF9F2" d="M60 0H0v60L60 0z"></path>
    </svg>
    <svg>
        <rect transform="translate(240, 420)" fill="#C6EBD4" width="60" height="60"></rect>
        <path transform="translate(240, 420) translate(30,30) rotate(90) translate(-30,-30)"
            fill="#E0F4E8" d="M60 0H0v60L60 0z"></path>
        <rect transform="translate(240, 420)" fill="#62C992" x="15" y="15" width="30" height="30"></rect>
    </svg>
    <svg>
        <rect transform="translate(240, 480)" fill="#263238" width="60" height="60"></rect>
        <rect transform="translate(240, 480)" fill="#33B978" x="15" y="15" width="30" height="30"></rect>
    </svg>
    <svg>
        <rect transform="translate(240, 540)" fill="#E0F4E8" width="60" height="60"></rect>
        <rect transform="translate(240, 540)" fill="#C6EBD4" x="15" y="15" width="30" height="30"></rect>
    </svg>
    <svg>
        <rect transform="translate(300, 0)" fill="#33B978" width="60" height="60"></rect>
        <rect transform="translate(300, 0)" fill="#62C992" x="15" y="15" width="30" height="30"></rect>
    </svg>
    <svg>
        <rect transform="translate(300, 60)" fill="#2B6F73" width="60" height="60"></rect>
        <path transform="translate(300, 60) translate(30,30) rotate(270) translate(-30,-30)"
            fill="#263238" d="M60 0H0v60L60 0z"></path>
        <rect transform="translate(300, 60)" fill="#62C992" x="15" y="15" width="30" height="30"></rect>
    </svg>
    <svg>
        <rect transform="translate(300, 120)" fill="#33B978" width="60" height="60"></rect>
        <path transform="translate(300, 120) translate(30,30) rotate(0) translate(-30,-30)"
            fill="#62C992" d="M60 0H0v60L60 0z"></path>
    </svg>
    <svg>
        <rect transform="translate(300, 180)" fill="#263238" width="60" height="60"></rect>
        <path transform="translate(300, 180) translate(30,30) rotate(90) translate(-30,-30)"
            fill="#33B978" d="M60 0H0v60L60 0z"></path>
        <rect transform="translate(300, 180)" fill="#C6EBD4" x="15" y="15" width="30" height="30"></rect>
    </svg>
    <svg>
        <rect transform="translate(300, 240)" fill="#E0F4E8" width="60" height="60"></rect>
        <path transform="translate(300, 240) translate(30,30) rotate(270) translate(-30,-30)"
            fill="#2B6F73" d="M60 0H0v60L60 0z"></path>
    </svg>
    <svg>
        <rect transform="translate(300, 300)" fill="#263238" width="60" height="60"></rect>
        <path transform="translate(300, 300) translate(30,30) rotate(0) translate(-30,-30)"
            fill="#62C992" d="M60 0H0v60L60 0z"></path>
        <rect transform="translate(300, 300)" fill="#33B978" x="15" y="15" width="30" height="30"></rect>
    </svg>
    <svg>
        <rect transform="translate(300, 360)" fill="#EEF9F2" width="60" height="60"></rect>
        <path transform="translate(300, 360) translate(30,30) rotate(180) translate(-30,-30)"
            fill="#2B6F73" d="M60 0H0v60L60 0z"></path>
        <rect transform="translate(300, 360)" fill="#E0F4E8" x="15" y="15" width="30" height="30"></rect>
    </svg>
    <svg>
        <rect transform="translate(300, 420)" fill="#33B978" width="60" height="60"></rect>
        <path transform="translate(300, 420) translate(30,30) rotate(0) translate(-30,-30)"
            fill="#E0F4E8" d="M60 0H0v60L60 0z"></path>
    </svg>
    <svg>
        <rect transform="translate(300, 480)" fill="#62C992" width="60" height="60"></rect>
        <rect transform="translate(300, 480)" fill="#9BD9B6" x="15" y="15" width="30" height="30"></rect>
    </svg>
    <svg>
        <rect transform="translate(300, 540)" fill="#9BD9B6" width="60" height="60"></rect>
        <path transform="translate(300, 540) translate(30,30) rotate(0) translate(-30,-30)"
            fill="#E0F4E8" d="M60 0H0v60L60 0z"></path>
    </svg>
    <svg>
        <rect transform="translate(360, 0)" fill="#263238" width="60" height="60"></rect>
        <path transform="translate(360, 0) translate(30,30) rotate(180) translate(-30,-30)"
            fill="#2B6F73" d="M60 0H0v60L60 0z"></path>
        <rect transform="translate(360, 0)" fill="#C6EBD4" x="15" y="15" width="30" height="30"></rect>
    </svg>
    <svg>
        <rect transform="translate(360, 60)" fill="#33B978" width="60" height="60"></rect>
        <path transform="translate(360, 60) translate(30,30) rotate(90) translate(-30,-30)"
            fill="#62C992" d="M60 0H0v60L60 0z"></path>
    </svg>
    <svg>
        <rect transform="translate(360, 120)" fill="#1FA463" width="60" height="60"></rect>
        <path transform="translate(360, 120) translate(30,30) rotate(180) translate(-30,-30)"
            fill="#62C992" d="M60 0H0v60L60 0z"></path>
    </svg>
    <svg>
        <rect transform="translate(360, 180)" fill="#62C992" width="60" height="60"></rect>
        <path transform="translate(360, 180) translate(30,30) rotate(0) translate(-30,-30)"
            fill="#9BD9B6" d="M60 0H0v60L60 0z"></path>
        <rect transform="translate(360, 180)" fill="#E0F4E8" x="15" y="15" width="30" height="30"></rect>
    </svg>
    <svg>
        <rect transform="translate(360, 240)" fill="#C6EBD4" width="60" height="60"></rect>
        <path transform="translate(360, 240) translate(30,30) rotate(270) translate(-30,-30)"
            fill="#1FA463" d="M60 0H0v60L60 0z"></path>
    </svg>
    <svg>
        <rect transform="translate(360, 300)" fill="#1FA463" width="60" height="60"></rect>
        <path transform="translate(360, 300) translate(30,30) rotate(90) translate(-30,-30)"
            fill="#263238" d="M60 0H0v60L60 0z"></path>
        <rect transform="translate(360, 300)" fill="#62C992" x="15" y="15" width="30" height="30"></rect>
    </svg>
    <svg>
        <rect transform="translate(360, 360)" fill="#33B978" width="60" height="60"></rect>
        <path transform="translate(360, 360) translate(30,30) rotate(0) translate(-30,-30)"
            fill="#C6EBD4" d="M60 0H0v60L60 0z"></path>
    </svg>
    <svg>
        <rect transform="translate(360, 420)" fill="#33B978" width="60" height="60"></rect>
        <path transform="translate(360, 420) translate(30,30) rotate(270) translate(-30,-30)"
            fill="#C6EBD4" d="M60 0H0v60L60 0z"></path>
    </svg>
    <svg>
        <rect transform="translate(360, 480)" fill="#1FA463" width="60" height="60"></rect>
        <rect transform="translate(360, 480)" fill="#2B6F73" x="15" y="15" width="30" height="30"></rect>
    </svg>
    <svg>
        <rect transform="translate(360, 540)" fill="#E0F4E8" width="60" height="60"></rect>
        <path transform="translate(360, 540) translate(30,30) rotate(90) translate(-30,-30)"
            fill="#C6EBD4" d="M60 0H0v60L60 0z"></path>
    </svg>
    <svg>
        <rect transform="translate(420, 0)" fill="#62C992" width="60" height="60"></rect>
        <path transform="translate(420, 0) translate(30,30) rotate(0) translate(-30,-30)"
            fill="#9BD9B6" d="M60 0H0v60L60 0z"></path>
    </svg>
    <svg>
        <rect transform="translate(420, 60)" fill="#E0F4E8" width="60" height="60"></rect>
        <path transform="translate(420, 60) translate(30,30) rotate(270) translate(-30,-30)"
            fill="#33B978" d="M60 0H0v60L60 0z"></path>
    </svg>
    <svg>
        <rect transform="translate(420, 120)" fill="#33B978" width="60" height="60"></rect>
        <path transform="translate(420, 120) translate(30,30) rotate(180) translate(-30,-30)"
            fill="#9BD9B6" d="M60 0H0v60L60 0z"></path>
        <rect transform="translate(420, 120)" fill="#62C992" x="15" y="15" width="30" height="30"></rect>
    </svg>
    <svg>
        <rect transform="translate(420, 180)" fill="#62C992" width="60" height="60"></rect>
        <rect transform="translate(420, 180)" fill="#E0F4E8" x="15" y="15" width="30" height="30"></rect>
    </svg>
    <svg>
        <rect transform="translate(420, 240)" fill="#33B978" width="60" height="60"></rect>
        <path transform="translate(420, 240) translate(30,30) rotate(90) translate(-30,-30)"
            fill="#C6EBD4" d="M60 0H0v60L60 0z"></path>
    </svg>
    <svg>
        <rect transform="translate(420, 300)" fill="#EEF9F2" width="60" height="60"></rect>
        <path transform="translate(420, 300) translate(30,30) rotate(90) translate(-30,-30)"
            fill="#C6EBD4" d="M60 0H0v60L60 0z"></path>
        <rect transform="translate(420, 300)" fill="#2B6F73" x="15" y="15" width="30" height="30"></rect>
    </svg>
    <svg>
        <rect transform="translate(420, 360)" fill="#9BD9B6" width="60" height="60"></rect>
        <path transform="translate(420, 360) translate(30,30) rotate(90) translate(-30,-30)"
            fill="#263238" d="M60 0H0v60L60 0z"></path>
    </svg>
    <svg>
        <rect transform="translate(420, 420)" fill="#2B6F73" width="60" height="60"></rect>
        <path transform="translate(420, 420) translate(30,30) rotate(0) translate(-30,-30)"
            fill="#E0F4E8" d="M60 0H0v60L60 0z"></path>
    </svg>
    <svg>
        <rect transform="translate(420, 480)" fill="#62C992" width="60" height="60"></rect>
        <path transform="translate(420, 480) translate(30,30) rotate(0) translate(-30,-30)"
            fill="#EEF9F2" d="M60 0H0v60L60 0z"></path>
        <rect transform="translate(420, 480)" fill="#2B6F73" x="15" y="15" width="30" height="30"></rect>
    </svg>
    <svg>
        <rect transform="translate(420, 540)" fill="#9BD9B6" width="60" height="60"></rect>
        <path transform="translate(420, 540) translate(30,30) rotate(180) translate(-30,-30)"
            fill="#EEF9F2" d="M60 0H0v60L60 0z"></path>
        <rect transform="translate(420, 540)" fill="#33B978" x="15" y="15" width="30" height="30"></rect>
    </svg>
    <svg>
        <rect transform="translate(480, 0)" fill="#EEF9F2" width="60" height="60"></rect>
        <path transform="translate(480, 0) translate(30,30) rotate(0) translate(-30,-30)"
            fill="#E0F4E8" d="M60 0H0v60L60 0z"></path>
        <rect transform="translate(480, 0)" fill="#33B978" x="15" y="15" width="30" height="30"></rect>
    </svg>
    <svg>
        <rect transform="translate(480, 60)" fill="#E0F4E8" width="60" height="60"></rect>
        <path transform="translate(480, 60) translate(30,30) rotate(90) translate(-30,-30)"
            fill="#C6EBD4" d="M60 0H0v60L60 0z"></path>
    </svg>
    <svg>
        <rect transform="translate(480, 120)" fill="#33B978" width="60" height="60"></rect>
        <path transform="translate(480, 120) translate(30,30) rotate(90) translate(-30,-30)"
            fill="#2B6F73" d="M60 0H0v60L60 0z"></path>
        <rect transform="translate(480, 120)" fill="#9BD9B6" x="15" y="15" width="30" height="30"></rect>
    </svg>
    <svg>
        <rect transform="translate(480, 180)" fill="#2B6F73" width="60" height="60"></rect>
        <rect transform="translate(480, 180)" fill="#C6EBD4" x="15" y="15" width="30" height="30"></rect>
    </svg>
    <svg>
        <rect transform="translate(480, 240)" fill="#62C992" width="60" height="60"></rect>
        <path transform="translate(480, 240) translate(30,30) rotate(270) translate(-30,-30)"
            fill="#EEF9F2" d="M60 0H0v60L60 0z"></path>
    </svg>
    <svg>
        <rect transform="translate(480, 300)" fill="#C6EBD4" width="60" height="60"></rect>
        <path transform="translate(480, 300) translate(30,30) rotate(0) translate(-30,-30)"
            fill="#2B6F73" d="M60 0H0v60L60 0z"></path>
    </svg>
    <svg>
        <rect transform="translate(480, 360)" fill="#9BD9B6" width="60" height="60"></rect>
        <rect transform="translate(480, 360)" fill="#33B978" x="15" y="15" width="30" height="30"></rect>
    </svg>
    <svg>
        <rect transform="translate(480, 420)" fill="#EEF9F2" width="60" height="60"></rect>
        <path transform="translate(480, 420) translate(30,30) rotate(0) translate(-30,-30)"
            fill="#C6EBD4" d="M60 0H0v60L60 0z"></path>
        <rect transform="translate(480, 420)" fill="#2B6F73" x="15" y="15" width="30" height="30"></rect>
    </svg>
    <svg>
        <rect transform="translate(480, 480)" fill="#33B978" width="60" height="60"></rect>
        <rect transform="translate(480, 480)" fill="#E0F4E8" x="15" y="15" width="30" height="30"></rect>
    </svg>
    <svg>
        <rect transform="translate(480, 540)" fill="#1FA463" width="60" height="60"></rect>
        <rect transform="translate(480, 540)" fill="#62C992" x="15" y="15" width="30" height="30"></rect>
    </svg>
    <svg>
        <rect transform="translate(540, 0)" fill="#33B978" width="60" height="60"></rect>
        <path transform="translate(540, 0) translate(30,30) rotate(270) translate(-30,-30)"
            fill="#E0F4E8" d="M60 0H0v60L60 0z"></path>
    </svg>
    <svg>
        <rect transform="translate(540, 60)" fill="#263238" width="60" height="60"></rect>
        <path transform="translate(540, 60) translate(30,30) rotate(180) translate(-30,-30)"
            fill="#E0F4E8" d="M60 0H0v60L60 0z"></path>
        <rect transform="translate(540, 60)" fill="#1FA463" x="15" y="15" width="30" height="30"></rect>
    </svg>
    <svg>
        <rect transform="translate(540, 120)" fill="#C6EBD4" width="60" height="60"></rect>
        <rect transform="translate(540, 120)" fill="#9BD9B6" x="15" y="15" width="30" height="30"></rect>
    </svg>
    <svg>
        <rect transform="translate(540, 180)" fill="#E0F4E8" width="60" height="60"></rect>
        <rect transform="translate(540, 180)" fill="#33B978" x="15" y="15" width="30" height="30"></rect>
    </svg>
    <svg>
        <rect transform="translate(540, 240)" fill="#263238" width="60" height="60"></rect>
        <path transform="translate(540, 240) translate(30,30) rotate(270) translate(-30,-30)"
            fill="#33B978" d="M60 0H0v60L60 0z"></path>
    </svg>
    <svg>
        <rect transform="translate(540, 300)" fill="#62C992" width="60" height="60"></rect>
        <rect transform="translate(540, 300)" fill="#1FA463" x="15" y="15" width="30" height="30"></rect>
    </svg>
    <svg>
        <rect transform="translate(540, 360)" fill="#263238" width="60" height="60"></rect>
        <path transform="translate(540, 360) translate(30,30) rotate(90) translate(-30,-30)"
            fill="#EEF9F2" d="M60 0H0v60L60 0z"></path>
        <rect transform="translate(540, 360)" fill="#C6EBD4" x="15" y="15" width="30" height="30"></rect>
    </svg>
    <svg>
        <rect transform="translate(540, 420)" fill="#E0F4E8" width="60" height="60"></rect>
        <path transform="translate(540, 420) translate(30,30) rotate(180) translate(-30,-30)"
            fill="#33B978" d="M60 0H0v60L60 0z"></path>
    </svg>
    <svg>
        <rect transform="translate(540, 480)" fill="#1FA463" width="60" height="60"></rect>
        <rect transform="translate(540, 480)" fill="#E0F4E8" x="15" y="15" width="30" height="30"></rect>
    </svg>
    <svg>
        <rect transform="translate(540, 540)" fill="#9BD9B6" width="60" height="60"></rect>
        <rect transform="translate(540, 540)" fill="#1FA463" x="15" y="15" width="30" height="30"></rect>
    </svg>
</svg>